<svg xmlns="http://www.w3.org/2000/svg" version="1.1" xmlns:xlink="http://www.w3.org/1999/xlink" xmlns:svgjs="http://svgjs.com/svgjs" width="1440" height="560" preserveAspectRatio="none" viewBox="0 0 1440 560"><g mask="url(&quot;#SvgjsMask1022&quot;)" fill="currentColor"><path d="M911 409L910 160" stroke-width="6" stroke="url(#SvgjsLinearGradient1023)" stroke-linecap="round" class="Down"></path><path d="M33 533L32 303" stroke-width="8" stroke="url(#SvgjsLinearGradient1024)" stroke-linecap="round" class="Up"></path><path d="M1328 434L1327 165" stroke-width="6" stroke="url(#SvgjsLinearGradient1023)" stroke-linecap="round" class="Down"></path><path d="M59 410L58 119" stroke-width="10" stroke="url(#SvgjsLinearGradient1024)" stroke-linecap="round" class="Up"></path><path d="M881 320L880 -28" stroke-width="8" stroke="url(#SvgjsLinearGradient1023)" stroke-linecap="round" class="Down"></path><path d="M1033 300L1032 631" stroke-width="10" stroke="url(#SvgjsLinearGradient1023)" stroke-linecap="round" class="Down"></path><path d="M1427 455L1426 833" stroke-width="10" stroke="url(#SvgjsLinearGradient1024)" stroke-linecap="round" class="Up"></path><path d="M763 499L762 156" stroke-width="6" stroke="url(#SvgjsLinearGradient1024)" stroke-linecap="round" class="Up"></path><path d="M302 290L301 -95" stroke-width="6" stroke="url(#SvgjsLinearGradient1023)" stroke-linecap="round" class="Down"></path><path d="M110 309L109 -12" stroke-width="8" stroke="url(#SvgjsLinearGradient1023)" stroke-linecap="round" class="Down"></path><path d="M806 499L805 216" stroke-width="6" stroke="url(#SvgjsLinearGradient1024)" stroke-linecap="round" class="Up"></path><path d="M1145 56L1144 -218" stroke-width="10" stroke="url(#SvgjsLinearGradient1024)" stroke-linecap="round" class="Up"></path><path d="M726 143L725 316" stroke-width="8" stroke="url(#SvgjsLinearGradient1024)" stroke-linecap="round" class="Up"></path><path d="M659 491L658 292" stroke-width="10" stroke="url(#SvgjsLinearGradient1023)" stroke-linecap="round" class="Down"></path><path d="M258 119L257 -145" stroke-width="10" stroke="url(#SvgjsLinearGradient1024)" stroke-linecap="round" class="Up"></path><path d="M1261 506L1260 800" stroke-width="8" stroke="url(#SvgjsLinearGradient1023)" stroke-linecap="round" class="Down"></path><path d="M974 466L973 745" stroke-width="10" stroke="url(#SvgjsLinearGradient1024)" stroke-linecap="round" class="Up"></path><path d="M1085 350L1084 50" stroke-width="8" stroke="url(#SvgjsLinearGradient1023)" stroke-linecap="round" class="Down"></path><path d="M331 365L330 -4" stroke-width="6" stroke="url(#SvgjsLinearGradient1024)" stroke-linecap="round" class="Up"></path><path d="M1277 166L1276 307" stroke-width="8" stroke="url(#SvgjsLinearGradient1023)" stroke-linecap="round" class="Down"></path><path d="M698 500L697 828" stroke-width="6" stroke="url(#SvgjsLinearGradient1023)" stroke-linecap="round" class="Down"></path><path d="M77 553L76 911" stroke-width="8" stroke="url(#SvgjsLinearGradient1024)" stroke-linecap="round" class="Up"></path><path d="M676 207L675 405" stroke-width="6" stroke="url(#SvgjsLinearGradient1024)" stroke-linecap="round" class="Up"></path><path d="M1404 286L1403 651" stroke-width="6" stroke="url(#SvgjsLinearGradient1024)" stroke-linecap="round" class="Up"></path><path d="M944 317L943 64" stroke-width="6" stroke="url(#SvgjsLinearGradient1023)" stroke-linecap="round" class="Down"></path><path d="M431 473L430 633" stroke-width="8" stroke="url(#SvgjsLinearGradient1023)" stroke-linecap="round" class="Down"></path><path d="M782 2L781 330" stroke-width="8" stroke="url(#SvgjsLinearGradient1023)" stroke-linecap="round" class="Down"></path><path d="M29 22L28 181" stroke-width="6" stroke="url(#SvgjsLinearGradient1023)" stroke-linecap="round" class="Down"></path><path d="M759 331L758 46" stroke-width="8" stroke="url(#SvgjsLinearGradient1023)" stroke-linecap="round" class="Down"></path><path d="M741 341L740 152" stroke-width="10" stroke="url(#SvgjsLinearGradient1023)" stroke-linecap="round" class="Down"></path><path d="M123 183L122 -129" stroke-width="8" stroke="url(#SvgjsLinearGradient1023)" stroke-linecap="round" class="Down"></path><path d="M1127 440L1126 853" stroke-width="8" stroke="url(#SvgjsLinearGradient1023)" stroke-linecap="round" class="Down"></path><path d="M512 356L511 52" stroke-width="6" stroke="url(#SvgjsLinearGradient1023)" stroke-linecap="round" class="Down"></path><path d="M701 240L700 528" stroke-width="8" stroke="url(#SvgjsLinearGradient1024)" stroke-linecap="round" class="Up"></path><path d="M1435 263L1434 624" stroke-width="6" stroke="url(#SvgjsLinearGradient1024)" stroke-linecap="round" class="Up"></path><path d="M834 383L833 627" stroke-width="10" stroke="currentColor" class="Down"></path></g><defs><mask id="SvgjsMask1022"><rect width="1440" height="560" fill="currentColor"</svg>