<svg xmlns="http://www.w3.org/2000/svg" version="1.1" xmlns:xlink="http://www.w3.org/1999/xlink" xmlns:svgjs="http://svgjs.com/svgjs" width="1440" height="560" preserveAspectRatio="none" viewBox="0 0 1440 560"><g mask="url(&quot;#SvgjsMask1011&quot;)" fill="none"><path d="M1101 484L1100 839" stroke-width="10" stroke="url(#SvgjsLinearGradient1012)" stroke-linecap="round" class="Up"></path><path d="M1237 26L1236 -354" stroke-width="8" stroke="url(#SvgjsLinearGradient1012)" stroke-linecap="round" class="Up"></path><path d="M162 218L161 440" stroke-width="6" stroke="url(#SvgjsLinearGradient1012)" stroke-linecap="round" class="Up"></path><path d="M1128 127L1127 -88" stroke-width="8" stroke="url(#SvgjsLinearGradient1012)" stroke-linecap="round" class="Up"></path><path d="M515 103L514 -171" stroke-width="8" stroke="url(#SvgjsLinearGradient1013)" stroke-linecap="round" class="Down"></path><path d="M388 69L387 -257" stroke-width="8" stroke="url(#SvgjsLinearGradient1012)" stroke-linecap="round" class="Up"></path><path d="M732 421L731 569" stroke-width="6" stroke="url(#SvgjsLinearGradient1013)" stroke-linecap="round" class="Down"></path><path d="M314 287L313 520" stroke-width="10" stroke="url(#SvgjsLinearGradient1013)" stroke-linecap="round" class="Down"></path><path d="M1174 348L1173 507" stroke-width="8" stroke="url(#SvgjsLinearGradient1013)" stroke-linecap="round" class="Down"></path><path d="M466 391L465 549" stroke-width="8" stroke="url(#SvgjsLinearGradient1012)" stroke-linecap="round" class="Up"></path><path d="M599 4L598 -380" stroke-width="8" stroke="url(#SvgjsLinearGradient1012)" stroke-linecap="round" class="Up"></path><path d="M1245 456L1244 605" stroke-width="8" stroke="url(#SvgjsLinearGradient1012)" stroke-linecap="round" class="Up"></path><path d="M799 257L798 103" stroke-width="8" stroke="url(#SvgjsLinearGradient1013)" stroke-linecap="round" class="Down"></path><path d="M0 396L-1 230" stroke-width="6" stroke="url(#SvgjsLinearGradient1013)" stroke-linecap="round" class="Down"></path><path d="M623 284L622 92" stroke-width="10" stroke="url(#SvgjsLinearGradient1012)" stroke-linecap="round" class="Up"></path><path d="M604 71L603 391" stroke-width="10" stroke="url(#SvgjsLinearGradient1013)" stroke-linecap="round" class="Down"></path><path d="M486 547L485 253" stroke-width="8" stroke="url(#SvgjsLinearGradient1013)" stroke-linecap="round" class="Down"></path><path d="M1118 371L1117 531" stroke-width="6" stroke="url(#SvgjsLinearGradient1012)" stroke-linecap="round" class="Up"></path><path d="M581 349L580 757" stroke-width="6" stroke="url(#SvgjsLinearGradient1013)" stroke-linecap="round" class="Down"></path><path d="M198 124L197 -32" stroke-width="10" stroke="url(#SvgjsLinearGradient1012)" stroke-linecap="round" class="Up"></path><path d="M676 461L675 759" stroke-width="8" stroke="url(#SvgjsLinearGradient1012)" stroke-linecap="round" class="Up"></path><path d="M180 376L179 76" stroke-width="8" stroke="url(#SvgjsLinearGradient1012)" stroke-linecap="round" class="Up"></path><path d="M1199 471L1198 290" stroke-width="10" stroke="url(#SvgjsLinearGradient1013)" stroke-linecap="round" class="Down"></path><path d="M1083 66L1082 -349" stroke-width="6" stroke="url(#SvgjsLinearGradient1012)" stroke-linecap="round" class="Up"></path><path d="M548 13L547 208" stroke-width="8" stroke="url(#SvgjsLinearGradient1013)" stroke-linecap="round" class="Down"></path><path d="M1356 246L1355 441" stroke-width="8" stroke="url(#SvgjsLinearGradient1012)" stroke-linecap="round" class="Up"></path><path d="M1025 311L1024 714" stroke-width="6" stroke="url(#SvgjsLinearGradient1012)" stroke-linecap="round" class="Up"></path><path d="M247 10L246 -223" stroke-width="6" stroke="url(#SvgjsLinearGradient1013)" stroke-linecap="round" class="Down"></path><path d="M1384 66L1383 -237" stroke-width="6" stroke="url(#SvgjsLinearGradient1013)" stroke-linecap="round" class="Down"></path><path d="M1024 228L1023 638" stroke-width="8" stroke="url(#SvgjsLinearGradient1013)" stroke-linecap="round" class="Down"></path><path d="M1389 249L1388 -87" stroke-width="6" stroke="url(#SvgjsLinearGradient1013)" stroke-linecap="round" class="Down"></path><path d="M1327 126L1326 350" stroke-width="10" stroke="url(#SvgjsLinearGradient1012)" stroke-linecap="round" class="Up"></path><path d="M17 80L16 -250" stroke-width="10" stroke="url(#SvgjsLinearGradient1012)" stroke-linecap="round" class="Up"></path><path d="M1133 455L1132 123" stroke-width="6" stroke="url(#SvgjsLinearGradient1013)" stroke-linecap="round" class="Down"></path><path d="M1360 426L1359 815" stroke-width="10" stroke="url(#SvgjsLinearGradient1012)" stroke-linecap="round" class="Up"></path><path d="M1416 315L1415 585" stroke-width="8" stroke="url(#SvgjsLinearGradient1012)" stroke-linecap="round" class="Up"></path></g><defs><mask id="SvgjsMask1011"><rect width="1440" height="560" fill="#ffffff"></rect></mask><linearGradient x1="0%" y1="100%" x2="0%" y2="0%" id="SvgjsLinearGradient1012"><stop stop-color="rgba(142, 68, 173, 0)" offset="0"></stop><stop stop-color="rgba(142, 68, 173, 1)" offset="1"></stop></linearGradient><linearGradient x1="0%" y1="0%" x2="0%" y2="100%" id="SvgjsLinearGradient1013"><stop stop-color="rgba(142, 68, 173, 0)" offset="0"></stop><stop stop-color="rgba(142, 68, 173, 1)" offset="1"></stop></linearGradient></defs></svg>