<svg xmlns="http://www.w3.org/2000/svg" version="1.1" xmlns:xlink="http://www.w3.org/1999/xlink" xmlns:svgjs="http://svgjs.com/svgjs" width="1440" height="560" preserveAspectRatio="none" viewBox="0 0 1440 560"><g mask="url(&quot;#SvgjsMask2369&quot;)" fill="none"><rect width="1440" height="560" x="0" y="0" fill="url(#SvgjsLinearGradient2370)"></rect><path d="M575 409L574 213" stroke-width="8" stroke="url(#SvgjsLinearGradient2371)" stroke-linecap="round" class="Up"></path><path d="M972 213L971 56" stroke-width="10" stroke="url(#SvgjsLinearGradient2371)" stroke-linecap="round" class="Up"></path><path d="M676 493L675 908" stroke-width="10" stroke="url(#SvgjsLinearGradient2371)" stroke-linecap="round" class="Up"></path><path d="M1191 110L1190 -161" stroke-width="8" stroke="url(#SvgjsLinearGradient2371)" stroke-linecap="round" class="Up"></path><path d="M48 474L47 617" stroke-width="6" stroke="url(#SvgjsLinearGradient2372)" stroke-linecap="round" class="Down"></path><path d="M305 222L304 456" stroke-width="10" stroke="url(#SvgjsLinearGradient2371)" stroke-linecap="round" class="Up"></path><path d="M1340 148L1339 372" stroke-width="10" stroke="url(#SvgjsLinearGradient2371)" stroke-linecap="round" class="Up"></path><path d="M1185 221L1184 385" stroke-width="6" stroke="url(#SvgjsLinearGradient2371)" stroke-linecap="round" class="Up"></path><path d="M938 382L937 671" stroke-width="6" stroke="url(#SvgjsLinearGradient2371)" stroke-linecap="round" class="Up"></path><path d="M534 344L533 667" stroke-width="10" stroke="url(#SvgjsLinearGradient2372)" stroke-linecap="round" class="Down"></path><path d="M773 86L772 466" stroke-width="8" stroke="url(#SvgjsLinearGradient2372)" stroke-linecap="round" class="Down"></path><path d="M1284 241L1283 -114" stroke-width="10" stroke="url(#SvgjsLinearGradient2372)" stroke-linecap="round" class="Down"></path><path d="M698 268L697 -22" stroke-width="8" stroke="url(#SvgjsLinearGradient2371)" stroke-linecap="round" class="Up"></path><path d="M298 92L297 360" stroke-width="8" stroke="url(#SvgjsLinearGradient2371)" stroke-linecap="round" class="Up"></path><path d="M177 334L176 608" stroke-width="8" stroke="url(#SvgjsLinearGradient2371)" stroke-linecap="round" class="Up"></path><path d="M240 16L239 166" stroke-width="10" stroke="url(#SvgjsLinearGradient2372)" stroke-linecap="round" class="Down"></path><path d="M603 282L602 -34" stroke-width="8" stroke="url(#SvgjsLinearGradient2372)" stroke-linecap="round" class="Down"></path><path d="M1175 484L1174 762" stroke-width="6" stroke="url(#SvgjsLinearGradient2371)" stroke-linecap="round" class="Up"></path><path d="M1220 127L1219 274" stroke-width="6" stroke="url(#SvgjsLinearGradient2371)" stroke-linecap="round" class="Up"></path><path d="M649 306L648 -100" stroke-width="6" stroke="url(#SvgjsLinearGradient2371)" stroke-linecap="round" class="Up"></path><path d="M193 260L192 432" stroke-width="6" stroke="url(#SvgjsLinearGradient2371)" stroke-linecap="round" class="Up"></path><path d="M676 242L675 386" stroke-width="8" stroke="url(#SvgjsLinearGradient2371)" stroke-linecap="round" class="Up"></path><path d="M523 280L522 115" stroke-width="10" stroke="url(#SvgjsLinearGradient2372)" stroke-linecap="round" class="Down"></path><path d="M927 200L926 401" stroke-width="6" stroke="url(#SvgjsLinearGradient2371)" stroke-linecap="round" class="Up"></path><path d="M1395 199L1394 -98" stroke-width="8" stroke="url(#SvgjsLinearGradient2371)" stroke-linecap="round" class="Up"></path><path d="M1224 381L1223 221" stroke-width="10" stroke="url(#SvgjsLinearGradient2372)" stroke-linecap="round" class="Down"></path><path d="M1346 162L1345 11" stroke-width="10" stroke="url(#SvgjsLinearGradient2372)" stroke-linecap="round" class="Down"></path><path d="M168 212L167 41" stroke-width="8" stroke="url(#SvgjsLinearGradient2371)" stroke-linecap="round" class="Up"></path><path d="M452 363L451 765" stroke-width="8" stroke="url(#SvgjsLinearGradient2371)" stroke-linecap="round" class="Up"></path><path d="M965 382L964 -7" stroke-width="6" stroke="url(#SvgjsLinearGradient2372)" stroke-linecap="round" class="Down"></path><path d="M223 29L222 -114" stroke-width="10" stroke="url(#SvgjsLinearGradient2372)" stroke-linecap="round" class="Down"></path><path d="M784 73L783 302" stroke-width="10" stroke="url(#SvgjsLinearGradient2372)" stroke-linecap="round" class="Down"></path><path d="M330 513L329 225" stroke-width="6" stroke="url(#SvgjsLinearGradient2372)" stroke-linecap="round" class="Down"></path><path d="M372 353L371 543" stroke-width="10" stroke="url(#SvgjsLinearGradient2371)" stroke-linecap="round" class="Up"></path><path d="M350 84L349 -136" stroke-width="10" stroke="url(#SvgjsLinearGradient2372)" stroke-linecap="round" class="Down"></path><path d="M267 525L266 309" stroke-width="6" stroke="url(#SvgjsLinearGradient2372)" stroke-linecap="round" class="Down"></path></g><defs><mask id="SvgjsMask2369"><rect width="1440" height="560" fill="#ffffff"></rect></mask><linearGradient x1="50%" y1="0%" x2="50%" y2="100%" gradientUnits="userSpaceOnUse" id="SvgjsLinearGradient2370"><stop stop-color="rgba(255, 255, 255, 1)" offset="0.65"></stop><stop stop-color="rgba(255, 255, 255, 1)" offset="0.76"></stop><stop stop-color="rgba(255, 255, 255, 1)" offset="0.91"></stop><stop stop-color="rgba(255, 255, 255, 1)" offset="0.92"></stop><stop stop-color="rgba(255, 255, 255, 1)" offset="0.93"></stop><stop stop-color="rgba(255, 255, 255, 1)" offset="0.93"></stop><stop stop-color="rgba(255, 255, 255, 1)" offset="0.93"></stop><stop stop-color="rgba(255, 255, 255, 1)" offset="0.93"></stop><stop stop-color="rgba(255, 255, 255, 1)" offset="0.93"></stop><stop stop-color="rgba(255, 255, 255, 1)" offset="0.93"></stop><stop stop-color="rgba(255, 255, 255, 1)" offset="0.93"></stop><stop stop-color="rgba(255, 255, 255, 1)" offset="0.94"></stop><stop stop-color="rgba(255, 255, 255, 1)" offset="0.96"></stop><stop stop-color="rgba(255, 255, 255, 1)" offset="0.96"></stop><stop stop-color="rgba(255, 255, 255, 1)" offset="1"></stop></linearGradient><linearGradient x1="0%" y1="100%" x2="0%" y2="0%" id="SvgjsLinearGradient2371"><stop stop-color="rgba(142, 68, 173, 0)" offset="0"></stop><stop stop-color="rgba(142, 68, 173, 1)" offset="1"></stop></linearGradient><linearGradient x1="0%" y1="0%" x2="0%" y2="100%" id="SvgjsLinearGradient2372"><stop stop-color="rgba(142, 68, 173, 0)" offset="0"></stop><stop stop-color="rgba(142, 68, 173, 1)" offset="1"></stop></linearGradient></defs></svg>